<?xml version="1.0" encoding="utf-8"?>
<!-- Generator: Adobe Illustrator 15.0.0, SVG Export Plug-In . SVG Version: 6.00 Build 0)  -->
<!DOCTYPE svg PUBLIC "-//W3C//DTD SVG 1.1//EN" "http://www.w3.org/Graphics/SVG/1.1/DTD/svg11.dtd">
<svg version="1.1" xmlns="http://www.w3.org/2000/svg" xmlns:xlink="http://www.w3.org/1999/xlink" x="0px" y="0px" width="1000px"
	 height="1000px" viewBox="0 0 1000 1000" enable-background="new 0 0 1000 1000" xml:space="preserve">
<g id="mesh">
	<g>
		<rect x="748.583" fill="#4D4D4D" width="2.834" height="1000"/>
		<rect x="498.583" fill="#4D4D4D" width="2.834" height="1000"/>
		<rect x="248.583" fill="#4D4D4D" width="2.835" height="1000"/>
		<rect y="748.583" fill="#4D4D4D" width="1000" height="2.834"/>
		<rect y="498.583" fill="#4D4D4D" width="1000" height="2.834"/>
		<rect y="248.583" fill="#4D4D4D" width="1000" height="2.835"/>
	</g>
	<rect x="751.417" y="748.583" fill="#4D4D4D" width="248.583" height="251.417"/>
</g>
<g id="icons">
	<path fill="#FFFFFF" d="M953.627,793.272l1.457,45.734c0,4.18-3.924,6.826-7.682,6.955c-50.731,1.727-60.577,20.131-60.577,20.131
		c2.352-27.76-25.242-26.928-22.869-0.617c0,0-10.301-17.877-60.598-19.516c-3.896-0.127-7.682-2.658-7.682-6.953l1.383-45.734
		h3.566l4.689,35.178h8.055l4.689-35.178h4.566l4.689,35.178h8.055l4.689-35.178h4.566l4.689,35.178h8.055l4.689-35.178h4.566
		l4.689,35.178h8.055l4.689-35.178h4.566l4.689,35.178h8.055l4.689-35.178h4.566l4.689,35.178h8.055l4.689-35.178h4.566
		l4.689,35.178h8.056l4.688-35.178H953.627z M862.583,961.776c0,7.324,5.758,13.316,12.797,13.316s12.797-5.992,12.797-13.316
		v-38.244h-25.594V961.776z M867.481,901.093h15.797v-38.244c0-7.324-3.555-13.316-7.898-13.316s-7.898,5.992-7.898,13.316V901.093z
		 M890.05,905.913h-29.34c-1.832,0-3.328,1.498-3.328,3.33v6.24c0,1.832,1.496,3.33,3.328,3.33h29.34c1.83,0,3.328-1.498,3.328-3.33
		v-6.24C893.378,907.411,891.88,905.913,890.05,905.913z"/>
	<path fill="#4D4D4D" d="M895.851,538.529c0.273-2.725-1.209-3.553-2.853-1.195c-17.224,24.703-53.478,46.039-63.701,70.488
		c-10.895,26.052,3.257,53.799,32.47,60.44c9.686-28.438,1.517-40.607,15.417-78.607c3.036-8.301,5.013-12.624,3.35-5.667
		c-1.308,5.467-3.104,11.549-4.296,17.119c-4.787,22.381-1.57,34.092-5.082,57.368c-0.554,3.674-1.283,7.664-2.181,11.852
		c-3.567,15.014-13.108,27.328-22.024,35.495c-5.324,4.878,9.498,13.405,12.292,8.749c9.924-16.539,16.362-42.527,16.949-42.5
		c19.968,0.928,42.952-15.584,47.708-37.178C932.559,595.571,892.535,571.43,895.851,538.529z"/>
	<path fill="#4D4D4D" d="M877.851,400.836c-0.312,2.422-0.701,5.599-0.698,5.598c-1.985,14.066,5.681,37.566,0.865,66.512
		l-14.596,0.003c4.911-15.615,7.745-34.949,7.764-65.339c0.063-1.435,0.247-3.678,0.488-7.18c0.324-4.7-11.964-12.467-5.969-10.781
		c2,0.563,4.875,1.625,9.938,2.188s7.719,0.471,11.313,0.25C893.06,391.711,878.441,396.242,877.851,400.836z M872.426,347.167
		c-3.362,5.168-6.541,10.049-6.986,17.388c-0.613,10.107,3.299,17.714,10.992,18.298c9.171,0.696,12.926-7.339,13.901-13.181
		c1.227-7.328-0.95-13.582-3.256-20.208c-2.613-7.516-5.318-15.288-2.786-24.569c2.244-8.217,6.199-15.327,11.005-20.404
		c-2.49-6.795-6.269-14.396-10.074-14.523c-3.807-0.128-8.5,7.906-10.969,12.956c4.29,4.872,6.599,10.518,6.862,16.787
		C881.672,332.971,876.762,340.512,872.426,347.167z M906.374,334.711c-1.386-5.252-2.583-9.789-2.665-13.394
		c-0.168-7.474,1.097-13.743,5.75-19.497c1.739-2.149,0.291-2.96-2.913-1.192c-9.452,5.217-15.572,13.188-18.85,25.196
		c-2.244,8.225,0.165,15.15,2.715,22.482c2.35,6.75,4.778,13.73,3.403,21.948c-1.484,8.876-7.498,17.011-17.615,16.14
		c-7.593-0.654-15.159-7.618-14.283-22.052c0.503-8.271,3.928-13.531,7.556-19.1c4.24-6.515,8.627-13.252,8.117-25.382
		c-0.521-12.403-10.564-19.252-16.604-22.561c-3.824-2.095-3.579,0.345-2.722,1.794c2.502,4.227,6.625,10.973,5.041,18.099
		c-0.934,4.203-3.091,8.338-5.374,12.715c-3.815,7.311-10.192,15.537-11.096,27.515c-0.319,4.261,1.422,28.172,29.5,31.412
		c27.165,3.135,34.461-14.785,35.511-26.303C912.703,353.124,908.565,343.011,906.374,334.711z M881.167,423.333
		c0.066,1.265,1.332,6.833,1.332,6.833s5.853-11.914,18.02-20.164C888.644,421.815,883.667,439,883.667,439
		s0.915,10.347,0.933,13.134c8.934-26.861,26.164-49.834,30.148-54.657C910.031,399.468,890.175,407.742,881.167,423.333z
		 M853.893,424.836c10.691,6.414,11.979,15.834,12.04,14.971c0.169-2.384,0.606-5.723,0.567-8.807
		c-5.412-10.741-17.49-12.223-20.732-13.102c2.75,3.984,14.096,22.64,17.232,38.539c0.804-3.322,1.81-6.662,2.299-10.502
		C865.38,445.303,862.205,433.461,853.893,424.836z"/>
	<path fill="#4D4D4D" d="M138.136,173.458v37.677c0,7.216-5.673,13.119-12.608,13.119c-6.934,0-12.606-5.903-12.606-13.119v-37.677
		H138.136z M139.98,156.101h-28.904c-1.805,0-3.28,1.476-3.28,3.281v6.147c0,1.805,1.475,3.281,3.28,3.281h28.904
		c1.804,0,3.28-1.476,3.28-3.281v-6.147C143.26,157.577,141.784,156.101,139.98,156.101z M138.326,140.507
		c-0.152-26.736-10.563-34.968-13.622-36.805c-2.98,1.789-13.105,9.759-13.6,35.433c2.852,2.784,5.06,6.91,6.342,13.007h15.828
		C134.363,146.976,136.111,143.224,138.326,140.507z M124.707,35.279c0,0-39.115,14.639-39.115,98.086
		c7.516,0,15.012-0.27,20.965,2.602c1.528-30.769,16.659-36.8,17.336-37.054l0.814-0.304l0.814,0.304
		c0.681,0.256,15.997,6.375,17.357,37.662c5.997-3.542,13.684-3.209,20.944-3.209C163.822,49.918,124.707,35.279,124.707,35.279z"/>
	<path fill="#4D4D4D" d="M386.242,171.929v38.244c0,7.324-5.76,13.316-12.799,13.316c-7.037,0-12.795-5.992-12.795-13.316v-38.244
		H386.242z M388.113,154.31h-29.338c-1.832,0-3.33,1.498-3.33,3.33v6.24c0,1.832,1.498,3.33,3.33,3.33h29.338
		c1.832,0,3.33-1.498,3.33-3.33v-6.24C391.443,155.808,389.945,154.31,388.113,154.31z M385.44,137.957
		c0-22.479-11.12-22.607-12.833-22.607c-1.711,0-12.811,0.128-12.811,21.314c2.686,2.623,4.766,6.51,5.975,12.254h14.91
		C381.707,144.05,383.354,140.516,385.44,137.957z M345.043,36.043c-5.809,0-11.137,39.261-11.137,95.185
		c7.08,0,15.998-0.254,21.605,2.451c0-23.128,14.914-23.128,17.1-23.128s17.117,0,17.117,23.7
		c5.648-3.337,14.746-3.023,21.586-3.023c0-48.559-4.948-95.185-11.137-95.185c-6.188,0-6.265,61.147-13.767,61.147
		s-6.496-61.147-13.611-61.147s-6.479,61.147-13.989,61.147C351.299,97.191,350.853,36.043,345.043,36.043z"/>
	<path fill="#4D4D4D" d="M888.199,173.622v38.244c0,7.324-5.759,13.316-12.798,13.316c-7.038,0-12.796-5.992-12.796-13.316v-38.244
		H888.199z M890.071,156.003h-29.339c-1.832,0-3.329,1.498-3.329,3.33v6.24c0,1.832,1.497,3.33,3.329,3.33h29.339
		c1.831,0,3.329-1.498,3.329-3.33v-6.24C893.4,157.501,891.902,156.003,890.071,156.003z M875.402,69.572l-5.295-5.172v87.582H880.7
		V64.397L875.402,69.572z M855.831,119.01L836.86,68.863l-6.596,12.495l15.791,41.747l0.229,0.518
		c2.372,4.684,8.118,8.216,13.369,8.216h6.453v-10.591h-6.453C858.431,121.247,856.519,120.108,855.831,119.01z M894.933,119.094
		c-0.383,1.006-2.045,2.153-3.121,2.153H884.7v10.591h7.111c5.479,0,11.075-3.861,13.021-8.982l15.694-41.492l-6.589-12.483
		L894.933,119.094z M875.402,62.583l12.792-12.494l-6.967-15.738h-11.65l-6.967,15.738L875.402,62.583z M922.935,75.213
		l15.012-6.768l-3.641-19.138l-10.947-3.984l-9.11,13.433L922.935,75.213z M836.514,58.809l-9.11-13.433l-10.947,3.984
		l-3.641,19.138l15.012,6.768L836.514,58.809z"/>
	<path fill="#4D4D4D" d="M638.268,624.413c0,8.149-6.669,15.771-14.751,14.753c-8.866-1.117-14.753-6.604-14.753-14.753
		c0-8.146,6.637-14.043,14.753-14.752C630.799,609.025,638.268,616.267,638.268,624.413z M596.478,645.499
		c-3.896,4.482-7.576,8.719-12.002,10.475c-3.29,1.306-6.731,1.966-10.225,1.966c-12.133,0-25.425-8.698-26.16-24.823
		c-0.315-6.917,2.342-13.529,7.685-19.122c6.959-7.283,17.391-11.632,27.904-11.632c9.818,0,18.563,3.808,25.336,10.749
		c-1.522,1.867-3.268,4.411-3.788,7.745c-7.445,0.121-24.569,4.13-24.026,5.942c0.227,0.753,18.814-3.753,23.869-0.866
		c0.243,3.162,1.249,6.022,2.888,8.462C603.438,637.497,599.84,641.629,596.478,645.499z M575.213,652.435
		c0,0-22.041-6.878-18.446-28.765C549.319,640.177,562.863,652.435,575.213,652.435z M632.522,608.185
		c2.824-4.862,4.145-10.188,5.369-15.177c1.423-5.805,2.768-11.286,6.146-15.721c6.11-8.021,14.994-12.808,23.761-12.808
		c7.641,0,14.408,3.592,19.574,10.389c5.555,7.31,7.534,14.589,5.882,21.638c-1.782,7.613-7.672,13.599-12.387,15.938
		c-5.023,2.492-10.534,2.618-16.367,2.75c-7.041,0.16-14.747,0.35-23.169,4.457c-0.485-1.714-1.216-3.354-2.145-4.863
		c3.037-8.938,18.611-17.984,18.113-18.61c-0.494-0.622-14.973,6.024-21.078,14.872
		C635.102,609.942,633.855,608.975,632.522,608.185z M665.255,569.955c0,0,19.853,6.193,22.042,29.017
		C693.394,576.618,670.727,569.896,665.255,569.955z M586.211,592.447c-4.562-5.06-6.403-11.102-5.329-17.473
		c1.373-8.13,7.35-15.996,15.599-20.528c3.612-1.985,7.688-3.035,11.785-3.035c9.309,0,17.885,5.29,22.384,13.805
		c5.674,10.739,4.551,25.205-2.833,41.054c-1.111-0.261-2.25-0.399-3.402-0.399c-0.406,0-0.816,0.019-1.225,0.054
		c-0.229,0.02-0.456,0.043-0.683,0.069c-0.502-8.584-7.359-18.688-8.134-18.512c-0.738,0.168,4.402,10.552,3.591,19.528
		c-1.814,0.613-3.487,1.453-4.988,2.48c-4.294-5.514-9.956-7.904-15.177-10.087C593.412,597.568,589.268,595.835,586.211,592.447z
		 M589.08,582.13c0,0-1.399-20.677,22.243-23.939C590.532,554.576,584.614,575.938,589.08,582.13z M691.028,668.179
		c-5.517,5.781-11.486,8.712-17.734,8.712c-9.496,0-17.982-7.147-21.148-13.872c-4.46-9.48-9.165-18.451-16.072-24.645
		c1.373-1.309,3.432-3.349,4.377-5.052c7.126-0.777,24.463,9.923,24.805,9.003c0.274-0.736-11.941-11.359-23.772-13.419
		c0.327-1.373,0.51-2.802,0.527-4.266c6.852-2.692,13.268-4.026,19.379-4.026c6.328,0,12.34,1.481,17.867,4.399
		c9.563,5.052,16.713,14.275,18.214,23.501C698.645,655.733,696.418,662.534,691.028,668.179z M692.541,649.343
		c0,0-6.495,23.197-28.495,18.352C680.24,675.795,694.331,662.127,692.541,649.343z M641.97,668.185
		c2.558,5.924,3.257,15.563-1.258,22.73c-3.754,5.96-10.295,9.161-19.441,9.516c-0.458,0.02-0.907,0.028-1.352,0.028
		c-0.003,0-0.003,0-0.003,0c-7.769,0-14.217-2.743-18.648-7.929c-5.451-6.381-7.636-16.003-5.992-26.4
		c1.674-10.602,7.673-20.55,16.303-27.83c1.496,1.197,3.218,2.199,5.139,2.977c-2.736,7.718-2.191,21.917-0.965,22.205
		c0.914,0.215,2.919-18.447,7.297-20.592c0.637,0.081,1.284,0.119,1.921,0.119c2.395,0,4.688-0.579,6.778-1.603
		c1.115,6.465,4.11,13.132,7.357,20.332C640.045,663.823,641.014,665.97,641.97,668.185z M639.149,684.641
		c0,0-19.492,15.778-36.111,1.091C613.053,700.817,632.579,695.098,639.149,684.641z"/>
	<path fill="#4D4D4D" d="M650.032,364.999c6.785-4.675,11.604-4.549,19.959-4.473l-0.129-4.417
		c-2.719,0.186-7.57-0.576-10.162-1.443c2.688-3.196,5.824-10.212,7.139-14.166l-3.357-1.398
		c-2.635,7.612-13.699,17.84-20.115,22.064c0.814-6.726,2.424-16.033-0.117-22.579l-3.254,0.045
		c3.277,13.682-7.01,31.577-13.727,39.515c-0.439-24.348-11.891-33.26-6.066-58.314c8.676-11.889,24.305-11.583,22.34-29.99
		l-2.957,0.386c-0.029,10.972-12.596,15.285-20.1,18.99c1.461-7.217,3.023-17.075,1.453-24.376l-4.045,0.948
		c0.207,3.664-0.822,8.065-2.064,11.539c-3.021-3.754-4.156-8.878-3.82-13.602l-3.631,0.954c-1.613,11.3,6.135,20.179,5.021,23.283
		c-2.805,14.243-5.793,16.953-4.07,31.668c-6.668-2.833-13.883-10.021-16.275-14.01s0.143-10.632,1.607-15.657l-2.832-1.667
		c-1.355,2.958-3.168,7.333-4.129,12.367c-2.111-5.008-5.063-14.25-4.703-19.643l-3.563-0.747
		c-0.607,11.743,2.197,25.383,10.115,34.654c-2.035-0.176-8.145-1.089-9.848-2.099l-2.852,2.745
		c10.604,6.156,18.637,4.208,26.646,14.795c10.217,13.504,8.496,27.479,7.076,43.14c-7.604-5.041-10.26-4.536-9.725-14.004
		l-4.197-1.636c-0.018,1.805-0.43,5.179-1.123,6.862c-2.68-2.176-4.734-4.468-5.658-7.79l-3.51,1.543
		c4.697,18.421,17.734,12.445,22.932,36.979c3.338,15.763-4.023,33.195-2.713,29.5c1.309-3.695-3.057,10.698-14.75,10.625
		c-11.693-0.073-0.213,1.724-0.213,1.724c2.867,0.233,5.596,0.264,8.355-0.318c0.701-0.148-0.664,3.203,0.045,2.969
		c0.783-0.258,3.725-3.972,4.441-4.492c1.559-1.133,2.98-1.626,4.545-2.832c-0.061,3.989-1.309,5.968-3.174,7.199
		c-2.117,1.397-8.93,3.685-12.713,3.659c-4.213-0.029-9,1.782-1.75,1.667c7.248-0.115,6.75,0.5,11.863-0.685
		c-2.797,1.343-4.35,3.627-10.781,6.185c-6.43,2.558-6.029,4.532,1.584,1.25c3.152-1.359,5.293-1.443,6.346-2.1
		c-0.391,2.788-0.691,6.299-1.68,9.267s-0.365,4.107,1.492,0.852c1.857-3.256,0.773-9.68,5.041-11.866
		c4.27-2.186,8.016-6.793,10.057-13.893c0.059,3.733,1.316,5.247,2.436,8.724c1.412,4.396-7.541,6.801-8.691,13.099
		c-1.148,6.298,0.549,2.728,2.416-0.667c1.834-3.333,4.84-2.55,7.869-7.007c0.242,0.977,2.547,6.533-0.006,11.018
		s-1.686,6.917,1.791,1.505c3.477-5.41,2.283-7.513,2.764-9.85c4.457,1.9,7.166,6.75,9.107,6.909
		c1.939,0.159-7.307-8.146-9.129-13.631c-1.604-4.829-2.354-5.789-1.176-10.905c0.287,0.977,3.979,6.16,4.113,7.21
		c0.137,1.051-0.533,5.652,0.125,6.018c0.658,0.366,1.924-3.279,2.281-4.047c2.541,2.444,8.609,3.682,10.162,8.975
		c1.555,5.293,1.246-0.772,1.246-0.772c-0.301-2.81-2.875-5.554-4.564-7.34c2.584,0.604,3.25,0.362,8.488,2.38
		c5.24,2.018,7.09,1.242,1.023-1.608s-15.596-2.856-15.273-11.62c1.695,3.434,6.572,5.146,11.496,5.891
		c0.879,0.133,4.697,3.055,5.563,3.131c1.146,0.101-2.111-2.767-1.063-2.75c3.643,0.06,7.873-0.222,8.063-0.625
		c0.512-1.096-16.105-0.555-20.777-14.817c-4.973-15.183-7.098-34.183-2.223-49.558
		C633.989,382.295,640.653,371.459,650.032,364.999z"/>
	<path fill="#4D4D4D" d="M605.978,129.928c0,0-9.637-9.921-5.408-18.125c4.227-8.202,15.57-29.718,4.07-47.652
		c-2.516-3.968-0.509-4.923,0.757-4.51c1.266,0.414,25.854,11.562,20.976,39.967c-0.998,5.813-0.258,10.882,0.588,15.202
		c-6.07,8.002-13.108,14.422-17.924,17.776c-0.055,0.039-0.108,0.082-0.161,0.12C607.071,130.955,605.978,129.928,605.978,129.928z
		 M625.777,133.615c-1.572,0.05-2.813,1.369-2.765,2.942c0.049,1.575,1.37,2.814,2.944,2.765c1.571-0.049,2.813-1.37,2.763-2.943
		C628.671,134.805,627.352,133.565,625.777,133.615z M563.313,199.475c-4.109,6.718-2.187,15.448,4.271,19.397
		c6.459,3.949,15.104,1.683,19.214-5.039l19.774-32.342l-23.485-14.359L563.313,199.475z M585.474,163.232l23.484,14.358
		l4.907-8.026l-23.485-14.359L585.474,163.232z M648.624,154.641c-2.577-4.005-5.442-8.5-7.648-12.062
		c-0.099,0.062-0.196,0.125-0.294,0.187c-4.481,2.846-9.022,5.738-13.396,9.208c2.983,3.402,5.885,6.909,8.424,10.302
		L648.624,154.641z M656.239,155.14l-23.697,14.006l5.072,8.579l23.695-14.008L656.239,155.14z M682.642,199.808l-19.005-32.153
		l-23.696,14.007l19.005,32.153c4.009,6.78,12.62,9.177,19.135,5.326C684.599,215.288,686.649,206.59,682.642,199.808z M611,162.769
		l-13.897-8.497c3.41-6.148,8.601-14.117,14.394-18.154c10.216-7.118,33.859-30.604,31.929-54.548
		c-1.93-23.943-22.139-38.139-24.59-39.56c-2.453-1.421-1.143-3.757,0.456-3.423c33.151,6.914,52.858,34.075,47.304,67.011
		C661.456,136.067,630.331,135.795,611,162.769z M631.61,136.289c-0.099-3.167-2.755-5.661-5.922-5.564
		c-3.168,0.099-5.664,2.756-5.564,5.923c0.1,3.167,2.756,5.663,5.922,5.563C629.214,142.113,631.709,139.457,631.61,136.289z"/>
	<path fill="#4D4D4D" d="M340.179,420.854l-41.425-44.725l7.965-10.966l37.144,23.152L340.179,420.854z M302.311,340.789
		l-27.871,38.37l17.553-4.224l11.729-16.149L302.311,340.789z M422.085,340.729h-66.646l-1.632,14.42h69.911
		c18.522,0.911,32.815,16.217,32.815,34.961c0,15.854-10.584,29.277-25.056,33.593l-7.115-62.855h-71.201l-2.775,24.52l0.02,0.002
		l-5.51,48.684l-0.021-0.002l-0.47,4.147h88.711v-0.003c21.465-5.331,37.662-24.996,37.662-48.085
		C470.78,362.926,449.271,340.729,422.085,340.729z M343.763,443.899l-1.651,14.581h93.304l-1.651-14.581H343.763z M378.484,329.177
		c0-1.414,1.152-2.565,2.567-2.565h16.068c1.415,0,2.567,1.151,2.567,2.565v5.854h12.344v-5.854c0-8.221-6.689-14.909-14.911-14.909
		h-16.068c-8.222,0-14.911,6.688-14.911,14.909v5.854h12.344V329.177z"/>
	<path fill="#4D4D4D" d="M139.628,823.37c-4.602-1.185-9.419-1.829-14.379-1.874l10.363-23.142L139.628,823.37z M92.737,804.001
		l2.593,25.209c4.178-2.367,8.669-4.244,13.395-5.552L92.737,804.001z M58.428,830.325l14.853,20.537
		c2.477-4.188,5.449-8.051,8.839-11.502L58.428,830.325z M201.891,849.214l-25.209,2.595c2.365,4.178,4.24,8.668,5.552,13.395
		L201.891,849.214z M175.564,814.906l-20.536,14.852c4.19,2.478,8.048,5.448,11.501,8.838L175.564,814.906z M207.535,892.089
		l-23.141-10.363c-0.046,4.962-0.688,9.78-1.873,14.381L207.535,892.089z M113.8,964.011l10.365-23.142
		c-4.96-0.042-9.78-0.688-14.381-1.872L113.8,964.011z M41.879,870.279l23.14,10.364c0.045-4.961,0.689-9.779,1.875-14.383
		L41.879,870.279z M156.678,958.369l-2.596-25.212c-4.178,2.365-8.667,4.244-13.393,5.553L156.678,958.369z M47.527,913.153
		l25.206-2.594c-2.365-4.179-4.242-8.669-5.555-13.395L47.527,913.153z M73.85,947.464l20.536-14.854
		c-4.19-2.479-8.05-5.449-11.503-8.839L73.85,947.464z M190.986,932.042l-14.854-20.536c-2.475,4.189-5.448,8.052-8.837,11.503
		L190.986,932.042z M177.778,881.185c0,29.31-23.762,53.07-53.071,53.07c-29.311,0-53.073-23.761-53.073-53.07
		s23.762-53.071,53.073-53.071C154.016,828.113,177.778,851.875,177.778,881.185z M120.999,836.597
		c-24.985,1.923-43.686,23.735-41.765,48.722C83.596,862.142,97.033,844.421,120.999,836.597z"/>
	<path fill="#4D4D4D" d="M449.614,883.924l19.023,8.518l-20.562,3.303C449.05,891.961,449.577,888.002,449.614,883.924z
		 M442.357,828.996l-16.88,12.207c3.444,2.037,6.616,4.48,9.455,7.266L442.357,828.996z M391.586,951.563l8.521-19.023
		c-4.078-0.034-8.04-0.564-11.822-1.538L391.586,951.563z M413.689,930.765l13.143,16.16l-2.134-20.725
		C421.264,928.145,417.574,929.689,413.689,930.765z M337.108,909.756l20.72-2.131c-1.945-3.435-3.487-7.127-4.566-11.011
		L337.108,909.756z M358.746,937.961l16.881-12.209c-3.445-2.038-6.618-4.48-9.456-7.266L358.746,937.961z M400.552,839.852
		c-0.054,0-0.107,0.004-0.161,0.004c10.869,4.307,18.439,14.963,18.439,27.078c0,16.051-13.058,29.107-29.106,29.107H358.77
		c5.396,17.968,22.057,31.062,41.782,31.062c24.092,0,43.625-19.532,43.625-43.624C444.177,859.386,424.644,839.852,400.552,839.852
		z M463.998,857.198l-20.722,2.134c1.944,3.433,3.485,7.125,4.564,11.009L463.998,857.198z M435.559,917.859l19.475,7.425
		l-12.211-16.882C440.789,911.847,438.345,915.021,435.559,917.859z M409.516,815.391l-8.52,19.023
		c4.078,0.036,8.038,0.566,11.82,1.54L409.516,815.391z M412.93,866.934c0-12.818-10.39-23.208-23.207-23.208
		c-0.137,0-0.271,0.008-0.405,0.01c0.115-1.064,0.178-2.147,0.178-3.244c0-16.397-13.292-29.689-29.688-29.689
		c-12.842,0-23.779,8.156-27.916,19.571c-3.067-1.273-6.428-1.982-9.956-1.982c-14.125,0-25.604,11.281-25.944,25.323
		c-0.39-0.024-0.78-0.043-1.173-0.043c-10.071,0-18.235,8.165-18.235,18.235c0,10.071,8.164,18.235,18.235,18.235h94.905
		C402.54,890.142,412.93,879.752,412.93,866.934z"/>
	<path fill="#4D4D4D" d="M124.707,578.069c-4.241,0-8.276,0.613-11.973,1.768l-7.431-15.209c-0.85-1.961,0.434-4.184,2.391-5.033
		c1.958-0.851,4.4-0.87,5.507,1.817l3.774,8.7l-3.991-22.706c-0.295-2.115,1.669-4.22,3.785-4.517
		c2.113-0.297,4.57,0.381,4.866,2.495l2.634,20.839l0.924-32.319c0.108-2.131,2.6-3.215,4.731-3.104
		c2.132,0.108,4.838,2.023,4.729,4.155l-2.62,31.417l5.182-15.058c0.694-2.019,3.096-3.261,5.824-1.969
		c1.929,0.912,3.627,3.238,2.932,5.257l-10.267,24.948C132.276,578.586,128.579,578.069,124.707,578.069z M122.777,678.122
		c2.549,0.715,2.598,2.843,0,3.423l-10.294,1.696l6.686,32.794c1.877,6.787,8.762,6.658,11.075,0l11.942-58.573l-21.795-3.59
		c-2.305-0.646-2.351-2.568,0-3.096l23.963-3.942l7.359-36.103c3.048-14.939-9.106-27.159-27.007-27.159
		s-30.055,12.22-27.007,27.159l1.559,7.654l26.699,4.396c2.548,0.713,2.598,2.841,0,3.422l-24.29,3.996l9.377,45.992
		L122.777,678.122z"/>
	<path fill="#4D4D4D" d="M328.995,658.277c-0.031,0.855-0.043,1.701-0.025,2.528l0.002,0.094l-0.004,0.093
		c-0.095,1.533-1.328,3.817-4.339,3.817c-2.923,0-4.192-2.174-4.333-3.637l-0.011-0.154c-0.021-0.866-0.009-1.744,0.016-2.63
		c-12.511-10.794-30.155,1.941-29.055,21.563c1.032,18.409,14.946,33.384,33.383,33.384s32.024-16.109,32.024-34.546
		C356.653,661.601,348.333,653.264,328.995,658.277z M336.849,669.337c-2.098,2.828-5.1,4.604-8.828,5.188
		c-0.875,0.137-1.773,0.202-2.68,0.202c-4.604,0-9.429-1.692-12.353-4.334c-0.567-0.514-1.138-2.029-0.601-3.203
		c0.76-1.66,2.166-0.599,2.742-0.144c2.783,2.187,7.953,3.798,12.545,3.075c2.242-0.354,4.982-1.572,7.09-4.098
		c0.739-0.886,1.709-1.368,2.44-0.521C337.938,666.355,337.475,668.494,336.849,669.337z M453.646,674.927
		c-2.574-17.074-15.098-28.498-31.946-16.987c0.157,0.87,0.3,1.737,0.407,2.597l0.014,0.155c0.078,1.466-0.854,3.806-3.743,4.241
		c-2.977,0.448-4.537-1.625-4.859-3.127l-0.019-0.091l-0.012-0.093c-0.104-0.822-0.243-1.656-0.401-2.496
		c-17.429-5.096-26.78,7.769-24.216,24.765c2.75,18.231,18.514,31.774,36.744,29.024
		C443.845,710.166,456.396,693.157,453.646,674.927z M430.722,668.717c-2.498,3.049-7.017,5.444-11.569,6.13
		c-0.896,0.136-1.794,0.204-2.679,0.199c-3.773-0.021-7.008-1.33-9.505-3.813c-0.743-0.741-1.521-2.787-0.923-3.737
		c0.598-0.948,1.627-0.615,2.49,0.149c2.461,2.183,5.352,2.98,7.622,2.994c4.649,0.029,9.521-2.334,11.946-4.912
		c0.503-0.534,1.732-1.795,2.732-0.266C431.543,666.542,431.204,668.125,430.722,668.717z M415.642,661.351
		c-2.346-18.655-25.204-40.64-36.643-55.04c-8.238-10.37-12.14-21.646-14.214-28.739c-1.677,3.971-4.021,8.813-6.686,14.31
		c-8.974,18.519-31.763,50.181-31.3,68.979c0,0-0.109,1.778-2.171,1.778c-2.01,0-2.172-1.673-2.172-1.673
		c-0.487-19.849,22.567-52.058,31.733-70.978c4.377-9.031,8.182-16.348,8.859-20.184l0,0c0.995-4.789,1.165-11.066,5.391-16.122
		c5.238-6.269,16.045-4.593,21.686-15.146c0,0,1.095,11.93-3.905,23.349c-3.026,6.907-9.134,8.677-16.22,10.108
		c10.734-0.235,17.569-8.359,26.273-7.939c10.819,0.523,18.121,10.458,24.045,10.718c-11.145,7.419-19.311,17.035-31.631,12.795
		c-8.531-2.938-15.496-7.877-19.891-11.558c1.92,6.712,5.643,17.491,13.783,27.847c11.474,14.598,34.893,37.254,37.37,56.953
		c0,0,0.091,1.678-1.897,1.977C416.015,663.092,415.642,661.351,415.642,661.351z"/>
	<path fill="#4D4D4D" d="M671.538,893.23h-102.61c-10.889,0-19.715-8.826-19.715-19.715s8.826-19.716,19.715-19.716
		c0.426,0,0.848,0.019,1.269,0.046c0.368-15.182,12.778-27.379,28.051-27.379c3.814,0,7.448,0.766,10.764,2.144
		c4.473-12.343,16.298-21.161,30.183-21.161c17.729,0,32.1,14.372,32.1,32.101c0,1.186-0.068,2.355-0.193,3.508
		c0.146-0.003,0.291-0.012,0.438-0.012c13.857,0,25.091,11.233,25.091,25.093S685.396,893.23,671.538,893.23z M622.757,927.085
		c0,0-7.952,15.486-7.952,19.878c0,4.391,3.561,7.952,7.952,7.952s7.951-3.562,7.951-7.952
		C630.708,942.571,622.757,927.085,622.757,927.085z M659.456,911.662c0,0-7.951,15.487-7.951,19.879
		c0,4.391,3.56,7.951,7.951,7.951s7.951-3.561,7.951-7.951C667.407,927.149,659.456,911.662,659.456,911.662z M586.058,902.618
		c0,0-7.952,15.487-7.952,19.879c0,4.391,3.561,7.951,7.952,7.951s7.951-3.561,7.951-7.951
		C594.009,918.105,586.058,902.618,586.058,902.618z"/>
	<path fill="#4D4D4D" d="M189.263,321.427l-2.317,8.707l-10.288,38.645l-50.419,36.214l-2.881,2.069
		c2.701,2.732,4.974,5.886,6.724,9.349l5.944-4.18l29.476,24.849l4.863-1.602l16.011-59.994l4.505-16.923l7.494-28.148l4.268-1.2
		l-3.007-10.701L189.263,321.427z M162.575,421.674l-18.968-15.471l28.544-20.501L162.575,421.674z M97.048,404.187
		c-15.951,0-28.882,12.931-28.882,28.881c0,15.951,12.931,28.881,28.882,28.881c15.952,0,28.882-12.93,28.882-28.881
		C125.93,417.118,113,404.187,97.048,404.187z M97.048,448.417c-8.476,0-15.347-6.872-15.347-15.349
		c0-8.477,6.871-15.348,15.347-15.348c8.478,0,15.349,6.872,15.349,15.348C112.396,441.545,105.525,448.417,97.048,448.417z
		 M105.418,433.068c0,4.623-3.746,8.37-8.37,8.37c-4.623,0-8.369-3.747-8.369-8.37c0-4.623,3.746-8.37,8.369-8.37
		C101.672,424.698,105.418,428.445,105.418,433.068z M135.017,336.605l-84.701,14.12l36.45-30.273L135.017,336.605z M68.947,409.017
		l-53.495-43.88l158.258-26.383l-6.666,24.966l-51.787,37.148c-5.376-3.049-11.587-4.798-18.209-4.798
		C85.801,396.07,75.732,401.096,68.947,409.017z M225.323,322.839l-3.007-10.702l8.639-2.429l3.007,10.702L225.323,322.839z
		 M216.215,313.852l3.007,10.702l-10.479,2.945l-3.007-10.702L216.215,313.852z"/>
</g>
</svg>
